<svg width="24" height="24" viewBox="0 0 24 24" fill="none" xmlns="http://www.w3.org/2000/svg">
<path d="M10.6009 0.0770483C7.87314 0.435247 5.50123 1.56954 3.60369 3.42942C1.96614 5.03212 0.866845 6.96547 0.314916 9.21571C0.0777225 10.1847 -0.00438258 10.9286 0.000178828 12.017C0.00474023 13.9917 0.39246 15.6174 1.28193 17.4083C2.17141 19.1901 3.57632 20.7836 5.29142 21.9409C7.58125 23.4839 10.4868 24.2279 13.1096 23.9386C16.1202 23.6033 18.524 22.469 20.5493 20.4163C23.2862 17.638 24.4356 14.0468 23.8517 10.0423C23.5142 7.69108 22.1686 5.101 20.4216 3.42483C18.7704 1.84508 16.7862 0.770486 14.6149 0.283701C13.3697 0.00816409 11.7686 -0.0790894 10.6009 0.0770483ZM13.4792 1.5925C16.7679 2.07469 19.6735 4.20092 21.1788 7.22726C21.6349 8.14569 21.9633 9.18355 22.1275 10.203C22.2416 10.9102 22.2416 12.8069 22.1275 13.4636C21.8219 15.1994 21.2016 16.669 20.1616 18.0788C19.9882 18.3176 19.5367 18.8228 19.1626 19.1993L18.483 19.879L18.5104 20.2326L18.5377 20.5816L18.4054 20.0765C18.2503 19.4749 18.1135 19.1397 17.9128 18.8733C17.8307 18.763 17.7623 18.6483 17.7623 18.6161C17.7668 18.5886 17.8809 18.4784 18.0223 18.3773C18.2777 18.1936 18.629 17.8216 18.8205 17.5277C18.8889 17.4313 18.9847 17.3532 19.0806 17.3257C19.3086 17.2614 19.5686 16.9905 19.6279 16.7562C19.6918 16.5312 19.6689 16.4256 19.5138 16.1914L19.3998 16.026L19.5002 15.5714C19.6005 15.1214 19.6005 15.1122 19.523 14.405C19.4819 14.0146 19.45 13.6381 19.45 13.5738C19.45 13.4131 19.0988 12.7058 18.8205 12.3155C18.3553 11.6542 18.1819 11.4981 17.5068 11.1674C16.7223 10.7771 16.4349 10.7128 15.6412 10.7449C14.9479 10.7725 14.364 10.9056 13.8304 11.1628C13.2921 11.42 12.6809 12.0308 12.0925 12.9079C11.8917 13.2018 11.8781 13.2385 11.8781 13.5233C11.8781 13.7437 11.8325 13.9595 11.7139 14.3315C11.5132 14.9606 11.5223 15.1076 11.8097 15.599C11.9237 15.7918 12.0149 15.9755 12.0149 15.9985C12.0149 16.026 11.9556 16.1133 11.8781 16.196C11.6363 16.4577 11.6409 16.8619 11.8917 17.1328C12.0332 17.2844 12.3798 17.4267 12.4665 17.367C12.4893 17.3532 12.4711 17.2384 12.4209 17.1144C12.284 16.7517 12.3205 16.7379 12.4893 17.0915C12.8223 17.7987 13.2739 18.2533 13.9991 18.6115C14.5465 18.8779 15.0163 18.9973 15.6869 19.0294C15.9879 19.0432 16.1932 19.0707 16.143 19.0891C15.8693 19.1855 14.6104 19.0065 14.0311 18.786L13.73 18.6712L13.6525 18.7768C13.4837 18.9973 13.1507 19.7275 13.0686 20.0535C13.023 20.2418 12.9591 20.6229 12.9272 20.8985C12.836 21.7572 12.7995 21.8353 12.7037 21.3301C12.5441 20.4944 11.4721 16.5358 11.3398 16.297C11.3216 16.2603 11.0342 16.1638 10.7013 16.0812C10.3683 15.9939 10.0033 15.8929 9.88928 15.8469C9.77984 15.8056 9.67492 15.7827 9.66124 15.7965C9.64756 15.8102 9.72508 15.9434 9.83456 16.0904C9.94405 16.2373 10.0991 16.4623 10.1812 16.5863C10.3956 16.9307 10.8928 18.0053 11.0388 18.4324C11.1984 18.8871 11.1848 18.9192 10.7058 19.3279C10.5234 19.484 10.3728 19.6448 10.3728 19.6861C10.3728 19.7228 10.5826 19.9525 10.8381 20.1913C11.2805 20.6092 11.2988 20.6367 11.2623 20.7653L11.2212 20.9031L11.203 20.7607C11.1939 20.6505 11.0844 20.5265 10.7149 20.1729C10.4504 19.9295 10.236 19.6999 10.236 19.6631C10.236 19.631 10.4002 19.4611 10.5963 19.2866C11.0981 18.8549 11.1026 18.8274 10.8974 18.2992C10.5507 17.4129 9.8072 16.0444 9.53351 15.7872C9.44687 15.7046 9.4149 15.6265 9.4149 15.5025C9.4149 15.3142 9.45599 15.2683 9.6886 15.1903C9.92581 15.1122 10.1584 14.9331 10.3181 14.7081C10.4458 14.529 10.5005 14.4968 10.8518 14.3866C11.0661 14.3177 11.2395 14.2442 11.2395 14.2259C11.2395 14.2029 11.1574 14.0835 11.057 13.9641C10.8609 13.7253 10.8244 13.5554 10.9567 13.5141C10.9977 13.5003 11.1574 13.4773 11.3079 13.459C11.4585 13.4452 11.5953 13.4222 11.6135 13.4085C11.6318 13.3993 11.5861 13.2248 11.5132 13.0227C11.4356 12.8206 11.3763 12.6278 11.3763 12.6002C11.3763 12.5681 11.4949 12.5084 11.6409 12.4579C11.9648 12.3522 12.5167 12.0767 12.5167 12.0216C12.5167 11.9986 12.3479 11.8884 12.1472 11.7782C11.7503 11.5669 11.349 11.2455 11.4082 11.1904C11.4265 11.172 11.5907 11.1077 11.764 11.0526C12.2019 10.9056 12.6672 10.6898 13.0321 10.4556C13.2009 10.35 13.3377 10.2536 13.3286 10.249C13.3103 10.2352 12.0742 9.70247 11.9556 9.66115C11.9009 9.6382 11.8872 9.61065 11.91 9.56932C11.9283 9.53255 12.2293 9.23865 12.576 8.91719C12.9181 8.59113 13.2009 8.311 13.2009 8.29267C13.2009 8.2559 12.9181 8.2054 12.0834 8.08598C11.7823 8.04009 11.5177 7.99415 11.4995 7.97577C11.4767 7.95743 11.6865 7.55327 11.9648 7.08028C12.4163 6.30417 12.503 6.13886 12.4574 6.13886C12.4483 6.13886 12.0742 6.27206 11.6272 6.43737C10.9749 6.67617 10.797 6.72211 10.7514 6.67617C10.651 6.57513 10.5553 5.8174 10.5553 5.13772V4.48105L10.1858 4.67852C9.75248 4.91275 9.17317 5.36736 8.90404 5.68425C8.80367 5.80824 8.69879 5.90928 8.68055 5.90928C8.6577 5.90928 8.48437 5.69803 8.28825 5.43624C7.95071 4.98619 7.38052 4.34787 7.31668 4.34787C7.29844 4.34787 7.26191 4.54994 7.23455 4.79332C7.15247 5.48217 6.9107 6.32256 6.79209 6.32256C6.76017 6.32256 6.54124 6.23073 6.30858 6.12048C5.93457 5.946 5.36438 5.77147 5.15457 5.77147C5.09985 5.77147 5.12721 5.85412 5.2595 6.12508C5.46019 6.5338 5.64263 7.17215 5.61983 7.39257L5.60615 7.5395L5.19561 7.57166C4.00053 7.66353 3.43948 7.71863 3.43948 7.74158C3.43948 7.75996 3.64018 7.97577 3.8865 8.22835C4.3472 8.69678 4.68474 9.19732 4.66193 9.37185C4.65281 9.43612 4.42018 9.62899 3.94123 9.96426C3.55351 10.2352 3.22965 10.4786 3.22053 10.5015C3.21141 10.5245 3.26158 10.5566 3.33457 10.575C3.82263 10.6806 4.03246 10.7495 4.20579 10.8505C4.44299 10.9929 4.6893 11.2042 4.81247 11.3787L4.90367 11.5073L4.39281 12.017C3.96404 12.4486 3.89106 12.5359 3.94579 12.5865C3.98229 12.6186 4.25597 12.7242 4.55702 12.816C4.85807 12.9079 5.12265 13.0043 5.14545 13.0273C5.16825 13.0503 5.13177 13.2845 5.04508 13.6059C4.96756 13.9044 4.91735 14.1662 4.93103 14.1891C4.95388 14.2305 5.70647 14.1937 5.82964 14.1478C5.94369 14.1065 5.98929 14.2167 6.02126 14.5795C6.0395 14.7908 6.06686 14.9698 6.0851 14.979C6.12158 15.002 6.63244 14.7815 6.63244 14.7448C6.63244 14.731 6.57316 14.6346 6.5002 14.529C6.19458 14.0789 5.98473 13.5141 5.82052 12.6829C5.71108 12.1547 5.66087 11.6496 5.71564 11.6496C5.73388 11.6496 5.7658 11.7966 5.78404 11.9757C5.87529 12.9997 6.34511 14.2994 6.77385 14.731C6.88334 14.8413 7.12055 14.9974 7.3486 15.103L7.73178 15.2821L7.71805 15.452L7.70437 15.6219L6.69177 15.9618L5.67911 16.3016L5.58791 16.5817C5.53771 16.7379 5.3279 17.4497 5.12721 18.1707C4.75316 19.4794 4.63913 19.8101 4.69387 19.4198C4.71667 19.2269 4.70755 19.2085 4.47491 18.9513C3.01983 17.3716 2.12123 15.5209 1.77 13.3717C1.63772 12.5865 1.65141 10.9056 1.79281 10.1341C2.18965 7.9666 3.06544 6.19857 4.49772 4.68771C6.83318 2.23083 10.1037 1.10113 13.4792 1.5925ZM7.30756 16.4348C6.97914 17.119 6.39527 18.7585 6.44543 18.8457C6.46823 18.8871 6.66441 19.0753 6.88334 19.2682C7.10682 19.4611 7.29388 19.6402 7.303 19.6724C7.31668 19.7045 7.24823 19.8055 7.15247 19.9019C7.0521 20.0076 7.01562 20.0305 7.06122 19.9616C7.23911 19.6815 7.25279 19.7182 6.79209 19.2912C6.48191 19.0018 6.35879 18.8595 6.35879 18.7814C6.35879 18.5426 7.26191 16.2419 7.35772 16.2419C7.38052 16.2419 7.35772 16.3292 7.30756 16.4348Z" fill="#00B2C3"/>
</svg>
